<svg width="405" height="279" viewBox="0 0 405 279" fill="none" xmlns="http://www.w3.org/2000/svg">
<path d="M80.931 239.143V219.214H92.4925V179.357H80.931V159.429H23.1231V239.143H80.931ZM69.3694 119.571V99.6429H80.931V59.7857H69.3694V39.8571H23.1231V119.571H69.3694ZM0 279V0H80.931V19.9286H92.4925V39.8571H104.054V119.571H92.4925V139.5H104.054V159.429H115.616V239.143H104.054V259.071H92.4925V279H0Z" fill="white"/>
<path d="M167.411 279V239.143H190.535V39.8571H167.411V0H236.781V39.8571H213.658V239.143H236.781V279H167.411Z" fill="white"/>
<path d="M334.823 279V39.8571H288.577V0H404.192V39.8571H357.946V279H334.823Z" fill="white"/>
</svg>
