<svg width="1288" height="279" viewBox="0 0 1288 279" fill="none" xmlns="http://www.w3.org/2000/svg">
<path d="M964.431 239.143V219.214H975.993V179.357H964.431V159.429H906.623V239.143H964.431ZM952.869 119.571V99.6429H964.431V59.7857H952.869V39.8571H906.623V119.571H952.869ZM883.5 279V0H964.431V19.9286H975.993V39.8571H987.554V119.571H975.993V139.5H987.554V159.429H999.116V239.143H987.554V259.071H975.993V279H883.5Z" fill="white"/>
<path d="M1050.91 279V239.143H1074.03V39.8571H1050.91V0H1120.28V39.8571H1097.16V239.143H1120.28V279H1050.91Z" fill="white"/>
<path d="M1218.32 279V39.8571H1172.08V0H1287.69V39.8571H1241.45V279H1218.32Z" fill="white"/>
<path d="M360.76 235.139V173.735H351.945V182.507H343.13V226.367H351.945V235.139H360.76ZM387.205 235.139V226.367H396.02V182.507H387.205V173.735H378.39V235.139H387.205ZM360.76 278.999V252.683H343.13V243.911H334.315V235.139H325.5V173.735H334.315V164.963H343.13V156.191H396.02V164.963H404.835V173.735H413.65V235.139H404.835V243.911H396.02V252.683H378.39V278.999H360.76Z" fill="white"/>
<path d="M497.215 261.455V252.683H506.03V182.507H497.215V173.735H461.956V182.507H453.141V252.683H461.956V261.455H497.215ZM453.141 278.999V270.227H444.326V261.455H435.511V173.735H444.326V164.963H453.141V156.191H506.03V164.963H514.845V173.735H523.66V261.455H514.845V270.227H506.03V278.999H453.141Z" fill="white"/>
<path d="M607.226 226.367V217.595H616.041V182.507H607.226V173.735H563.151V226.367H607.226ZM545.521 278.999V156.191H616.041V164.963H624.856V173.735H633.671V226.367H624.856V235.139H616.041V243.911H563.151V278.999H545.521Z" fill="white"/>
<path d="M673.162 278.999V270.227H664.347V261.455H655.532V243.911H673.162V252.683H681.977V261.455H717.237V252.683H726.052V226.367H717.237V235.139H673.162V226.367H664.347V217.595H655.532V156.191H673.162V208.823H681.977V217.595H717.237V208.823H726.052V156.191H743.682V261.455H734.867V270.227H726.052V278.999H673.162Z" fill="white"/>
<path d="M765.543 278.999V156.191H783.173V173.735H791.988V191.279H800.803V208.823H818.432V191.279H827.247V173.735H836.062V156.191H853.692V278.999H836.062V208.823H827.247V226.367H818.432V243.911H800.803V226.367H791.988V208.823H783.173V278.999H765.543Z" fill="white"/>
<path d="M69.5747 138.798H0V17.0425H17.3937V112.708H52.181V17.0425H69.5747V112.708H86.9683V156.192H69.5747V138.798Z" fill="white"/>
<path d="M196.48 138.798H179.087V69.2235H170.39V77.9204H161.693V86.6172H152.996V95.314H144.299V104.011H135.603V112.708H126.906V138.798H109.512V17.0425H126.906V86.6172H135.603V77.9204H144.299V69.2235H152.996V60.5267H161.693V51.8299H170.39V43.133H179.087V17.0425H196.48V138.798Z" fill="white"/>
<path d="M253.812 121.405H236.418V112.708H227.721V104.011H219.024V51.8299H227.721V43.133H236.418V34.4362H253.812V17.0425H271.205V34.4362H288.599V43.133H297.296V51.8299H305.993V104.011H297.296V112.708H288.599V121.405H271.205V138.798H253.812V121.405ZM271.205 51.8299V104.011H279.902V95.314H288.599V60.5267H279.902V51.8299H271.205ZM253.812 104.011V51.8299H245.115V60.5267H236.418V95.314H245.115V104.011H253.812Z" fill="white"/>
<path d="M328.536 138.798V17.0425H398.111V25.7394H406.808V34.4362H415.505V69.2235H406.808V77.9204H398.111V86.6172H345.93V138.798H328.536ZM345.93 69.2235H389.414V60.5267H398.111V43.133H389.414V34.4362H345.93V69.2235Z" fill="white"/>
<path d="M455.442 112.708H464.139V121.405H498.926V112.708H507.623V43.133H498.926V34.4362H464.139V43.133H455.442V112.708ZM446.745 121.405H438.049V34.4362H446.745V25.7394H455.442V17.0425H507.623V25.7394H516.32V34.4362H525.017V121.405H516.32V130.101H507.623V138.798H455.442V130.101H446.745V121.405Z" fill="white"/>
<path d="M573.651 34.4362V69.2235H608.438V60.5267H617.135V43.133H608.438V34.4362H573.651ZM608.438 121.405V112.708H617.135V95.314H608.438V86.6172H573.651V121.405H608.438ZM556.258 34.4362H547.561V17.0425H617.135V25.7394H625.832V34.4362H634.529V69.2235H625.832V86.6172H634.529V121.405H625.832V130.101H617.135V138.798H547.561V121.405H556.258V34.4362Z" fill="white"/>
<path d="M674.466 112.708H683.163V121.405H717.951V112.708H726.647V43.133H717.951V34.4362H683.163V43.133H674.466V112.708ZM665.77 121.405H657.073V34.4362H665.77V25.7394H674.466V17.0425H726.647V25.7394H735.344V34.4362H744.041V121.405H735.344V130.101H726.647V138.798H674.466V130.101H665.77V121.405Z" fill="white"/>
<path d="M853.553 138.798H836.16V77.9204H827.463V86.6172H818.766V95.314H810.069V104.011H801.372V112.708H792.675V121.405H783.979V138.798H766.585V34.4362H783.979V95.314H792.675V86.6172H801.372V77.9204H810.069V69.2235H818.766V60.5267H827.463V51.8299H836.16V34.4362H853.553V138.798ZM783.979 17.0425H775.282V8.3457H792.675V17.0425H801.372V25.7394H818.766V17.0425H827.463V8.3457H844.856V17.0425H836.16V25.7394H827.463V34.4362H792.675V25.7394H783.979V17.0425Z" fill="white"/>
</svg>
