<svg width="337" height="337" viewBox="0 0 337 337" fill="none" xmlns="http://www.w3.org/2000/svg">
<path d="M232.973 105.732C233.036 105.732 233.12 105.732 233.204 105.732C235.405 105.732 237.449 106.417 239.123 107.596L239.091 107.575C240.313 108.639 241.134 110.134 241.335 111.819V111.851C241.545 113.136 241.661 114.61 241.661 116.116C241.661 116.801 241.64 117.475 241.587 118.149V118.054C239.218 143.002 228.939 203.504 223.716 231.433C221.504 243.26 217.155 247.22 212.942 247.599C203.791 248.452 196.84 241.554 187.973 235.74C174.093 226.631 166.247 220.965 152.777 212.087C137.202 201.84 147.301 196.185 156.168 186.981C158.496 184.559 198.841 147.857 199.631 144.529C199.673 144.329 199.694 144.108 199.694 143.876C199.694 143.055 199.389 142.307 198.894 141.739C198.346 141.38 197.661 141.18 196.945 141.18C196.471 141.18 196.019 141.275 195.597 141.433L195.618 141.423C194.228 141.739 172.057 156.391 129.103 185.38C124.417 189.076 118.498 191.414 112.053 191.688H111.99C102.859 190.582 94.5711 188.55 86.7043 185.654L87.4836 185.907C77.6053 182.684 69.7595 180.988 70.4335 175.533C70.7915 172.697 74.7021 169.794 82.1653 166.824C128.138 146.794 158.794 133.591 174.135 127.216C191.058 118.233 210.678 110.84 231.309 106.048L232.962 105.722L232.973 105.732ZM167.763 10.793C80.3328 11.0036 9.53125 81.9315 9.53125 169.394C9.53125 256.982 80.5329 327.994 168.132 327.994C255.731 327.994 326.732 256.993 326.732 169.394C326.732 81.9315 255.931 11.0036 168.522 10.793H168.5C168.255 10.793 168.009 10.793 167.763 10.793Z" fill="white"/>
</svg>
