<svg width="542" height="580" viewBox="0 0 542 580" fill="none" xmlns="http://www.w3.org/2000/svg">
<path d="M0.114929 159.777V74.7045H11.7661V49.3852H24.4304V37.2319H36.5882V25.0786L61.4102 25.0786V12.9253L85.2191 12.9253V0.265625L147.527 0.265625V12.9253L171.843 12.9253V25.0786L196.665 25.0786V37.2319H209.329V49.8915H221.487V74.1981H233.138V147.624H245.296V160.284H282.276V147.624H368.9V160.284L406.386 160.284V172.437H430.701V184.59H455.523V197.757H468.188V209.403H480.345V221.557H491.997V234.723H504.661V246.37H517.325V271.183H528.976V308.149H541.641V419.554H528.976V456.52H517.325V481.333H504.661V493.486H491.997V505.64H480.345V518.299H468.188V529.946H455.523V542.1H430.701V555.266H405.879V567.419H368.9V579.572H282.782V567.419H245.296V555.266H221.994V542.1H197.172V529.946H185.014V518.299H171.843V505.64H160.192V492.98H147.527V480.827H135.37V456.014H122.705V419.048H110.548L110.548 320.302H122.705V283.336H135.37V246.37H122.705V234.216H85.2191V221.557H60.9036V209.403H36.5882V197.25L24.4304 197.25V184.084H11.7661V159.777H0.114929Z" fill="white"/>
</svg>
