<svg width="865" height="809" viewBox="0 0 865 809" fill="none" xmlns="http://www.w3.org/2000/svg">
<path d="M626.823 0H753.851V17.4059H791.656V36.3255H809.803V54.4883H827.95L827.95 91.5706H846.097L846.097 127.139H865V220.224H846.097V256.549H827.95V293.631H809.803V312.551H790.9V330.714H754.607V348.12H644.969V366.283H626.066V421.528H644.969V550.937H626.066V606.939H607.92V643.265H589.773V680.347H570.114V699.267H552.723V717.429H534.576V734.835H514.917V753.755H497.526V772.674H460.476V790.08H405.28V809H238.934V790.08H183.737V772.674H146.687V753.755L128.54 753.755V734.835H110.393V717.429L91.4904 717.429V699.267H74.0996V680.347H55.9528V643.265H36.2937V606.182H18.1469V550.937H0V422.284H18.1469V366.283H36.2937V331.471H55.9528V294.388H74.0996V276.225H91.4904V256.549H110.393V239.143H129.296V220.224H147.443V202.061L184.493 202.061V183.141H239.69V164.978H387.133V183.141H442.33V202.061H497.526V183.141H515.673V127.139H534.576V90.8138H552.723V54.4883H570.87V36.3255H590.529V17.4059H626.823V0Z" fill="white"/>
</svg>
