<svg width="716" height="731" viewBox="0 0 716 731" fill="none" xmlns="http://www.w3.org/2000/svg">
<path d="M149.323 731H34.4843V715.272H0.305946V698.177H-16.0996V681.765H-32.5052V648.258H-48.9108V616.119H-66V532.009H-48.9108V499.186H-32.5052V465.679H-16.0996V448.584H0.98951V432.172H33.8007V416.444H132.918V400.033H150.007V350.114H132.918V233.181H150.007V182.579H166.413V149.756H182.818V116.249H200.591V99.1534H216.313V82.7418H232.719V67.014H250.491V49.9186H266.213V32.8232H299.708V17.0954H349.608V0H499.993V17.0954H549.893V32.8232H583.388V49.9186H599.794V67.014H616.199V82.7418H633.288V99.1534H649.01V116.249H665.416V149.756H683.189V183.263H699.594V233.181H716V349.43H699.594V400.033H683.189V431.488H665.416V464.995H649.01V481.407H633.288V499.186H616.199V514.914H599.11V532.009H582.705V548.421H549.21V565.516H499.309V581.928H366.014V565.516H316.114V548.421H266.213V565.516H249.808V616.119H232.719V648.942H216.313V681.765H199.907V698.177H182.135V715.272H149.323V731Z" fill="white"/>
</svg>
