<svg width="337" height="337" viewBox="0 0 337 337" fill="none" xmlns="http://www.w3.org/2000/svg">
<path d="M265.565 235.922H242.617C233.929 235.922 231.243 229.013 215.636 213.195C202.04 200.031 196.027 198.262 192.688 198.262C188.002 198.262 186.665 199.6 186.665 206.066V226.791C186.665 232.373 184.885 235.711 170.173 235.711C140.496 233.721 114.989 217.534 100.182 193.944L99.9607 193.576C82.7737 172.229 70.1047 146.501 63.8386 118.362L63.6069 117.129C63.6069 113.791 64.9443 110.663 71.4105 110.663H94.3581C100.15 110.663 102.383 113.338 104.626 119.573C115.979 152.346 134.935 181.096 142.739 181.096C145.635 181.096 146.972 179.759 146.972 172.408V138.508C146.077 122.901 137.831 121.574 137.831 116.003C137.926 113.022 140.369 110.642 143.36 110.642C143.455 110.642 143.539 110.642 143.634 110.653H143.623H179.735C184.643 110.653 186.422 113.328 186.422 119.12V164.825C186.422 169.722 188.655 171.513 189.992 171.513C192.889 171.513 195.353 169.722 200.692 164.383C211.792 150.829 221.281 135.327 228.516 118.614L229 117.351C230.527 113.528 234.192 110.874 238.478 110.874C238.678 110.874 238.868 110.884 239.068 110.895H239.036H261.984C268.893 110.895 270.462 114.444 268.893 119.362C259.688 139.635 249.347 157.053 237.362 173.187L237.91 172.408C235.466 176.42 234.571 178.2 237.91 182.676C240.353 186.014 248.388 192.923 253.738 199.168C261.479 206.824 267.966 215.734 272.863 225.57L273.126 226.149C275.359 232.594 272.01 235.943 265.544 235.943L265.565 235.922ZM216.984 10.5742H120.023C31.5287 10.5742 10.582 31.5209 10.582 120.015V216.976C10.582 305.47 31.5287 326.417 120.023 326.417H216.984C305.478 326.417 326.425 305.47 326.425 216.976V120.015C326.425 31.5209 305.246 10.5742 216.984 10.5742Z" fill="white"/>
</svg>
